<svg width="31" height="31" viewBox="0 0 31 31" fill="none" xmlns="http://www.w3.org/2000/svg">
<path d="M15.4473 12.1067C13.6372 12.1067 12.1727 13.5712 12.1727 15.3813C12.1727 17.1913 13.6372 18.6558 15.4473 18.6558C17.2574 18.6558 18.7219 17.1913 18.7219 15.3813C18.7219 13.5712 17.2574 12.1067 15.4473 12.1067Z" fill="#515173"/>
<path d="M15.4514 0C6.91939 0 0 6.91939 0 15.4514C0 23.9834 6.91939 30.9028 15.4514 30.9028C23.9834 30.9028 30.9028 23.9834 30.9028 15.4514C30.9028 6.91528 23.9834 0 15.4514 0ZM24.5305 20.5155C24.5305 22.8603 22.6135 24.7815 20.2645 24.7815H10.6341C8.28928 24.7815 6.36814 22.8644 6.36814 20.5155V10.3873C6.36814 8.04245 8.28517 6.12132 10.6341 6.12132H20.2645C22.6094 6.12132 24.5305 8.03834 24.5305 10.3873V20.5155Z" fill="#515173"/>
<path d="M19.2484 7.51587H11.6544C10.6218 7.51587 9.64685 7.92313 8.91048 8.6595C8.17411 9.39587 7.76685 10.3708 7.76685 11.4034V19.4952C7.76685 20.5278 8.17411 21.5028 8.91048 22.2391C9.64685 22.9755 10.6218 23.3828 11.6544 23.3828H19.2484C20.281 23.3828 21.256 22.9755 21.9923 22.2391C22.7287 21.5028 23.136 20.5278 23.136 19.4952V11.4034C23.136 10.3708 22.7287 9.39587 21.9923 8.6595C21.256 7.92313 20.281 7.51587 19.2484 7.51587ZM15.4802 20.3797C12.7198 20.3797 10.4778 18.1418 10.4778 15.3773C10.4778 12.617 12.7157 10.375 15.4802 10.375C18.2447 10.375 20.4826 12.6129 20.4826 15.3773C20.4785 18.1418 18.2406 20.3797 15.4802 20.3797ZM20.5607 11.4857C19.9066 11.4857 19.376 10.955 19.376 10.3009C19.376 9.64682 19.9066 9.11614 20.5607 9.11614C21.2148 9.11614 21.7455 9.64682 21.7455 10.3009C21.7455 10.955 21.2148 11.4857 20.5607 11.4857Z" fill="#515173"/>
</svg>
