<svg width="31" height="31" viewBox="0 0 31 31" fill="none" xmlns="http://www.w3.org/2000/svg">
<path d="M15.2035 13.1055C14.648 13.1055 14.1866 13.3661 13.8105 13.8789C13.4345 14.3917 13.2508 15.0668 13.2508 15.9086C13.2508 16.588 13.3832 17.1563 13.6524 17.6093C13.9174 18.0665 14.2677 18.293 14.7036 18.293C15.3446 18.293 15.8915 17.981 16.353 17.3614C16.8145 16.7376 17.0452 16.0282 17.0495 15.2292C17.0495 14.584 16.8615 14.0712 16.4897 13.6866C16.1137 13.2935 15.6864 13.1055 15.2035 13.1055Z" fill="#515173"/>
<path d="M15.4514 0C6.91808 0 0 6.91808 0 15.4514C0 23.9847 6.91808 30.9028 15.4514 30.9028C23.9847 30.9028 30.9028 23.9847 30.9028 15.4514C30.907 6.91808 23.989 0 15.4514 0ZM23.4206 18.8869C22.3096 20.2201 20.9893 20.8824 19.4638 20.8824C18.4254 20.8824 17.6392 20.4851 17.1051 19.6817C16.3957 20.515 15.5454 20.938 14.5498 20.938C13.4345 20.938 12.4816 20.468 11.6868 19.5236C10.892 18.5835 10.4989 17.3401 10.4989 15.806C10.4989 14.2336 10.9433 12.9474 11.8406 11.9517C12.7337 10.9561 13.8063 10.4519 15.0625 10.4519C15.8531 10.4519 16.5795 10.7254 17.2461 11.2681L17.4127 10.6613H20.0193L19.263 16.8529C19.2202 17.276 19.1946 17.6435 19.1946 17.9554C19.1946 18.3442 19.3741 18.5323 19.733 18.5323C20.3953 18.5323 21.0363 18.1178 21.6516 17.2803C22.2669 16.447 22.5746 15.3958 22.5746 14.1353C22.5746 12.2936 21.9037 10.7681 20.5577 9.55456C19.216 8.34101 17.5665 7.73424 15.6138 7.73424C13.4986 7.73424 11.7082 8.47348 10.2596 9.94768C8.80678 11.4262 8.07608 13.2678 8.07608 15.4727C8.07608 17.5067 8.7555 19.2758 10.1101 20.7842C11.4689 22.2968 13.3875 23.0489 15.8659 23.0489C17.4213 23.0489 19.0194 22.6985 20.6474 21.9977C21.2798 21.7285 22.002 22.0234 22.2584 22.6558C22.5062 23.2711 22.2114 23.9719 21.6003 24.2325C19.7287 25.0359 17.8187 25.4333 15.8701 25.4333C12.6397 25.4333 10.0759 24.4504 8.16582 22.4891C6.26431 20.5278 5.31141 18.1861 5.31141 15.4599C5.31141 12.6183 6.31131 10.2425 8.3111 8.33247C10.3109 6.42241 12.7337 5.46952 15.5753 5.46952C18.2801 5.46952 20.5449 6.30704 22.3652 7.98635C24.1898 9.66566 25.0957 11.6954 25.0957 14.0755C25.0871 15.9556 24.5316 17.558 23.4206 18.8869Z" fill="#515173"/>
</svg>
