<svg width="31" height="31" viewBox="0 0 31 31" fill="none" xmlns="http://www.w3.org/2000/svg">
<path d="M15.4514 0C6.91862 0 0 6.91862 0 15.4514C0 23.9841 6.91862 30.9028 15.4514 30.9028C23.9841 30.9028 30.9028 23.9841 30.9028 15.4514C30.9028 6.91862 23.9841 0 15.4514 0ZM24.8092 21.6079C24.4402 22.649 22.9761 23.5161 21.806 23.7681C21.0079 23.9391 19.9608 24.0742 16.4475 22.616C11.9501 20.7529 9.05481 16.1835 8.82979 15.8864C8.61377 15.5894 7.01163 13.4682 7.01163 11.272C7.01163 9.07581 8.12773 8.00772 8.57477 7.54868C8.9438 7.17064 9.55286 6.99963 10.1379 6.99963C10.3269 6.99963 10.4979 7.00863 10.651 7.01763C11.101 7.03563 11.326 7.06263 11.623 7.7737C11.9921 8.66178 12.8922 10.858 12.9972 11.086C13.1052 11.311 13.2162 11.617 13.0632 11.9141C12.9192 12.2201 12.7931 12.3551 12.5681 12.6161C12.3431 12.8772 12.1271 13.0752 11.9021 13.3542C11.695 13.5972 11.461 13.8582 11.7221 14.3053C11.9831 14.7463 12.8802 16.2135 14.2033 17.3896C15.9104 18.9107 17.2966 19.3967 17.7916 19.6038C18.1606 19.7568 18.6017 19.7208 18.8717 19.4327C19.2137 19.0637 19.6368 18.4517 20.0658 17.8486C20.3718 17.4166 20.7589 17.3626 21.1639 17.5156C21.5779 17.6596 23.7621 18.7397 24.2122 18.9647C24.6622 19.1897 24.9592 19.2977 25.0672 19.4867C25.1783 19.6728 25.1783 20.5638 24.8092 21.6079Z" fill="#515173"/>
</svg>
