<svg width="29" height="44" viewBox="0 0 29 44" fill="none" xmlns="http://www.w3.org/2000/svg">
<path d="M14.5 0C6.50485 0 0 6.57963 0 14.6667C0 17.0944 0.600078 19.5015 1.74085 21.6366L13.7071 43.5273C13.8664 43.8192 14.1699 44 14.5 44C14.8301 44 15.1336 43.8192 15.2929 43.5273L27.2636 21.6294C28.3999 19.5015 29 17.0943 29 14.6666C29 6.57963 22.4951 0 14.5 0ZM14.5 22C10.5024 22 7.25004 18.7102 7.25004 14.6667C7.25004 10.6232 10.5024 7.33339 14.5 7.33339C18.4976 7.33339 21.75 10.6232 21.75 14.6667C21.75 18.7102 18.4976 22 14.5 22Z" fill="#515173"/>
</svg>
