<svg width="31" height="31" viewBox="0 0 31 31" fill="none" xmlns="http://www.w3.org/2000/svg">
<path d="M15.4514 0C6.91939 0 0 6.91939 0 15.4514C0 23.9834 6.91939 30.9028 15.4514 30.9028C23.9834 30.9028 30.9028 23.9834 30.9028 15.4514C30.9028 6.91939 23.9834 0 15.4514 0ZM22.1939 22.6094C22.161 22.6094 22.124 22.6094 22.091 22.6094C20.9556 22.4243 20.1822 21.6221 19.5199 20.8775C19.1456 20.4579 18.5779 19.5076 17.895 19.6187C16.9282 19.775 17.4054 21.4287 17.0023 22.1363C16.6773 22.7081 15.2868 22.6053 14.3283 22.5024C11.3047 22.1815 9.7579 20.5689 8.40447 18.8329C6.95642 16.9776 5.82924 15.04 4.78433 12.905C4.447 12.2138 3.9986 11.4528 3.9986 10.5971C4.48814 10.1981 5.29033 10.3338 6.09663 10.3338C6.77952 10.3338 7.84911 10.1816 8.35099 10.4367C8.64718 10.5889 8.9516 11.3911 9.1902 11.9053C9.74145 13.0818 10.2516 13.9293 10.9221 14.896C11.2142 15.3156 11.6585 16.1014 12.1809 15.9985C12.6869 15.8957 12.7363 14.6492 12.7569 13.847C12.7815 12.9379 12.7569 11.8107 12.4936 11.3294C12.2467 10.8769 11.7942 10.8645 11.3417 10.5971C11.7202 9.83195 12.761 9.7579 14.0157 9.7579C15.0688 9.7579 16.5415 9.6386 16.9529 10.3338C17.3725 11.0414 17.0846 12.3167 17.0558 13.2711C17.027 14.3448 16.8418 15.4514 17.5782 15.945C18.15 15.8833 18.4545 15.328 18.7836 14.896C19.5076 13.9499 19.956 13.1271 20.5155 11.9053C20.7458 11.4034 20.9927 10.5436 21.4082 10.3832C22.0417 10.1446 23.0496 10.3297 23.9793 10.3297C24.7403 10.3297 26.0938 10.1199 26.3406 10.6424C26.5422 11.0784 25.9498 12.1768 25.7647 12.4771C25.0612 13.629 24.3742 14.3612 23.6131 15.3609C23.3087 15.7599 22.6834 16.4017 22.7204 17.0393C22.7492 17.5247 23.2347 17.895 23.6131 18.2446C24.4277 19.0016 24.9995 19.5528 25.6577 20.3962C25.9045 20.7129 26.4434 21.3999 26.3899 21.8113C26.2295 23.1071 23.21 22.3008 22.1939 22.6094Z" fill="#515173"/>
</svg>
