<svg width="133" height="127" viewBox="0 0 133 127" fill="none" xmlns="http://www.w3.org/2000/svg">
<path d="M54.0187 53.665C56.8436 56.1319 59.2427 59.1299 61.054 62.5693L63.63 66.8426C63.63 66.8426 64.4786 67.2497 68.0218 67.3348C85.9698 68.2222 102.489 56.9001 107.914 39.6104C108.622 37.3552 109.124 35.0761 109.419 32.7837C106.968 29.2935 104.116 26.1345 100.94 23.3617C101.565 27.6275 101.295 31.8932 100.136 36.0695C93.8508 25.9525 85.2606 17.3852 75.168 11.0373C69.0144 9.95146 62.5729 9.94102 56.0864 11.1626C73.2562 17.0496 87.5787 29.4844 95.7475 45.4795C93.5284 48.6878 90.738 51.4217 87.5547 53.5785C78.7516 33.3609 59.3311 19.9118 37.6165 18.3651C33.73 20.8068 30.2229 23.7286 27.1431 27.0219C49.6944 24.2283 71.2275 36.7541 79.9736 57.3416C76.408 58.5437 72.592 59.1105 68.6875 58.9494C60.4812 43.0543 42.3697 34.4915 24.6106 38.4604C22.297 38.978 20.0658 39.6834 17.9247 40.5739C16.1224 44.3877 14.7729 48.4267 13.9287 52.6105C17.3339 49.9302 21.1904 48.024 25.4158 46.9307C25.4158 46.9307 31.3085 45.2498 35.8037 46.006C39.7067 46.3147 43.4823 47.3499 46.9504 49.0144C46.9504 49.0144 49.7483 50.045 54.0187 53.665ZM65.9271 62.975L65.9121 62.9646L65.9301 62.9571L65.9271 62.975Z" fill="url(#paint0_linear)"/>
<path d="M80.0726 57.3877C76.5145 58.5943 72.706 59.167 68.806 59.0149L63.7979 59.1059C63.7979 59.1059 63.0197 59.6339 61.1785 62.6483C51.4562 77.6813 53.0891 97.5707 65.4503 110.869C67.0637 112.604 68.7985 114.173 70.6488 115.57C74.9131 115.198 79.0875 114.313 83.0865 112.957C79.0575 111.37 75.4754 109.011 72.4121 105.929C84.3625 105.552 96.1104 102.417 106.675 96.8787C110.689 92.1147 113.91 86.5648 116.08 80.363C102.389 92.2341 84.4135 98.3851 66.4009 97.4544C64.7126 93.9404 63.72 90.1713 63.4276 86.353C85.4346 88.8409 106.837 78.7984 119.011 60.845C118.821 56.2765 118.023 51.7959 116.688 47.4989C107.879 68.3369 86.2293 80.6613 63.9269 77.9378C64.6571 74.2642 66.0651 70.6905 68.1538 67.4047C86.0973 68.2549 102.588 56.9059 107.983 39.6132C108.686 37.3595 109.182 35.0835 109.475 32.794C107.05 29.3381 104.203 26.1627 100.978 23.3467C101.616 27.6199 101.354 31.8946 100.199 36.0828C100.199 36.0828 98.7269 42.0026 95.827 45.5002C93.6124 48.7115 90.828 51.4514 87.6492 53.6111C87.6492 53.6111 85.3551 55.5098 80.0726 57.3877ZM66.0231 63.0137L66.0396 63.0062L66.0381 63.0241L66.0231 63.0137Z" fill="url(#paint1_linear)"/>
<path d="M63.9375 77.7814C64.6498 74.1093 66.0397 70.5356 68.1089 67.2438L70.5155 62.8736C70.5155 62.8736 70.4405 61.9399 68.7237 58.854C60.4259 42.9976 42.2574 34.5377 24.5163 38.6155C22.2027 39.148 19.9715 39.8684 17.8334 40.7723C16.0431 44.6398 14.7446 48.6848 13.9424 52.8103C17.3266 50.1182 21.1636 48.1956 25.3725 47.0784C19.7721 57.5862 16.6788 69.2887 16.271 81.1597C18.4376 86.99 21.6839 92.5251 26.0202 97.4769C22.4531 79.7621 26.0037 61.1852 35.7544 46.091C39.6589 46.3759 43.442 47.3887 46.9191 49.0323C33.8277 66.8038 31.9729 90.2699 41.6022 109.692C45.6836 111.796 49.9899 113.33 54.4027 114.31C40.5856 96.3628 40.5736 71.5498 54.0159 53.6396C56.8603 56.0932 59.2803 59.0822 61.1126 62.5172C51.4669 77.592 53.1897 97.465 65.6049 110.705C67.2228 112.429 68.9621 113.99 70.8154 115.377C75.0347 114.996 79.2196 114.115 83.277 112.726C79.2316 111.157 75.63 108.809 72.5457 105.734C72.5457 105.734 68.1104 101.525 66.4955 97.2845C64.7922 93.7794 63.7816 90.0148 63.4742 86.1965C63.4757 86.1995 62.9554 83.2747 63.9375 77.7814ZM65.9992 62.8557L65.9977 62.8736L65.9827 62.8632L65.9992 62.8557Z" fill="url(#paint2_linear)"/>
<path d="M2.89763 60.4975H1.85853V54.4136L0.44458 55.6382V54.5151L1.85853 53.2905H2.89613V60.4975H2.89763Z" fill="#8C0404"/>
<path d="M9.56244 55.3653C9.56244 55.8381 9.38251 56.4347 9.02265 57.1566L7.37329 60.4976H6.26372L7.83061 57.3892C7.63419 57.4698 7.41677 57.5101 7.17986 57.5101C6.62358 57.5101 6.16775 57.3147 5.81089 56.9224C5.45403 56.5316 5.2771 56.029 5.2771 55.4145C5.2771 54.7597 5.47352 54.2317 5.86787 53.8305C6.26072 53.4293 6.77952 53.2279 7.42427 53.2279C8.06152 53.2279 8.57732 53.4248 8.97167 53.82C9.36602 54.2168 9.56244 54.7314 9.56244 55.3653ZM8.52484 55.4264C8.52484 55.0356 8.42438 54.7239 8.22496 54.4957C8.02404 54.266 7.75564 54.1512 7.41527 54.1512C7.0824 54.1512 6.817 54.2645 6.61608 54.4897C6.41516 54.7149 6.3162 55.0177 6.3162 55.3951C6.3162 55.7724 6.41666 56.0767 6.61608 56.3064C6.8155 56.5361 7.0824 56.6509 7.41527 56.6509C7.74814 56.6509 8.01504 56.5376 8.21896 56.3124C8.42288 56.0857 8.52484 55.7903 8.52484 55.4264Z" fill="#8C0404"/>
<path d="M127.222 58.4751C127.222 59.0896 127.013 59.5908 126.597 59.9786C126.18 60.3664 125.644 60.5603 124.994 60.5603C124.336 60.5603 123.797 60.3664 123.38 59.9786C122.964 59.5908 122.755 59.0896 122.755 58.4751C122.755 58.0903 122.838 57.7667 123.004 57.5027C123.17 57.2387 123.419 56.997 123.752 56.7733C123.169 56.3691 122.877 55.8516 122.877 55.2251C122.877 54.6449 123.075 54.1676 123.472 53.7933C123.869 53.4189 124.376 53.231 124.994 53.231C125.604 53.231 126.108 53.4189 126.505 53.7933C126.902 54.1676 127.1 54.6419 127.1 55.2162C127.1 55.8635 126.808 56.384 126.225 56.7748C126.558 56.997 126.807 57.2402 126.973 57.5042C127.139 57.7652 127.222 58.0903 127.222 58.4751ZM126.184 58.4647C126.184 58.1142 126.07 57.8219 125.844 57.5892C125.616 57.3565 125.333 57.2402 124.994 57.2402C124.655 57.2402 124.37 57.3565 124.139 57.5892C123.908 57.8219 123.793 58.1067 123.793 58.4453C123.793 58.7824 123.908 59.0658 124.139 59.2955C124.37 59.5252 124.655 59.64 124.994 59.64C125.327 59.64 125.607 59.5252 125.838 59.2955C126.069 59.0658 126.184 58.7884 126.184 58.4647ZM126.063 55.2758C126.063 54.9447 125.962 54.6747 125.763 54.4659C125.564 54.2571 125.307 54.1527 124.995 54.1527C124.683 54.1527 124.425 54.2571 124.222 54.4659C124.018 54.6747 123.916 54.9387 123.916 55.255C123.916 55.5726 124.018 55.8337 124.222 56.0395C124.425 56.2453 124.683 56.3482 124.995 56.3482C125.301 56.3482 125.555 56.2468 125.758 56.044C125.962 55.8411 126.063 55.5861 126.063 55.2758Z" fill="#022C49"/>
<path d="M132.556 55.3653C132.556 55.8381 132.376 56.4347 132.016 57.1566L130.366 60.4976H129.257L130.824 57.3892C130.627 57.4698 130.41 57.5101 130.173 57.5101C129.617 57.5101 129.161 57.3147 128.804 56.9224C128.447 56.5316 128.27 56.0275 128.27 55.4145C128.27 54.7597 128.467 54.2317 128.861 53.8305C129.254 53.4293 129.773 53.2279 130.417 53.2279C131.055 53.2279 131.57 53.4248 131.965 53.82C132.358 54.2168 132.556 54.7314 132.556 55.3653ZM131.516 55.4264C131.516 55.0356 131.416 54.7239 131.217 54.4957C131.016 54.266 130.747 54.1512 130.407 54.1512C130.074 54.1512 129.809 54.2645 129.608 54.4897C129.408 54.7164 129.308 55.0177 129.308 55.3951C129.308 55.7739 129.408 56.0767 129.608 56.3064C129.807 56.5361 130.074 56.6509 130.407 56.6509C130.74 56.6509 131.007 56.5376 131.211 56.3124C131.416 56.0857 131.516 55.7903 131.516 55.4264Z" fill="#022C49"/>
<path d="M9.34942 45.6598C9.47087 45.8969 9.54884 46.1102 9.58483 46.2967C9.62081 46.4831 9.60732 46.6889 9.54734 46.9142C9.44088 47.3034 9.21147 47.6032 8.85911 47.8135C8.66119 47.9329 8.44677 47.9851 8.21586 47.9687C7.98495 47.9523 7.62209 47.8777 7.12578 47.7434C6.59798 47.6017 6.26061 47.4914 6.11217 47.4153C5.88876 47.3034 5.71632 47.1409 5.59487 46.9321C5.39395 46.5845 5.34897 46.2117 5.45693 45.8149C5.5169 45.5942 5.61286 45.4092 5.74481 45.2601C5.87676 45.1109 6.0507 44.9662 6.26661 44.8275L6.41505 45.0841C6.22163 45.2004 6.07169 45.3167 5.96523 45.4301C5.85877 45.5449 5.7808 45.6956 5.72982 45.882C5.66385 46.1251 5.67734 46.3683 5.7733 46.6114C5.86927 46.8545 6.0297 47.026 6.25612 47.1274C6.44204 47.214 6.75992 47.3184 7.20825 47.4392L7.37768 47.4854C7.76903 47.5913 8.05692 47.6465 8.24135 47.6525C8.42578 47.6584 8.59671 47.6152 8.75565 47.5257C9.01955 47.3765 9.19348 47.1468 9.27595 46.8396C9.32693 46.6531 9.33592 46.4831 9.30294 46.331C9.26995 46.1788 9.19948 46.0043 9.09152 45.806L9.34942 45.6598Z" fill="black"/>
<path d="M10.7679 42.9007L10.6735 43.1826L8.23693 42.3727L7.74962 43.8254L10.1862 44.6353L10.0917 44.9172L7.41675 44.0283L8.09149 42.0117L10.7679 42.9007Z" fill="black"/>
<path d="M10.5849 39.4224C11.0782 39.6163 11.3931 39.8654 11.5281 40.1682C11.645 40.4351 11.645 40.7141 11.5296 41.0064C11.4141 41.2987 11.2222 41.5031 10.9538 41.6194C10.6494 41.7507 10.2551 41.7208 9.76924 41.5299C9.28343 41.339 8.97455 41.0929 8.8426 40.7901C8.72564 40.5231 8.72564 40.2442 8.8426 39.9519C8.97605 39.6163 9.19346 39.403 9.49635 39.3105C9.79923 39.2181 10.1591 39.2553 10.5849 39.4224ZM10.5025 39.7088C10.2625 39.6148 10.0706 39.5596 9.92668 39.5417C9.78274 39.5253 9.64779 39.5417 9.52334 39.5924C9.31941 39.6745 9.17247 39.8266 9.08551 40.0459C8.99854 40.2666 9.00154 40.4754 9.0945 40.6753C9.19346 40.893 9.45436 41.0854 9.8787 41.2525C10.1111 41.3435 10.2985 41.3972 10.444 41.4151C10.5879 41.4315 10.7229 41.4151 10.8473 41.3644C11.0527 41.2823 11.1982 41.1302 11.2852 40.9109C11.3721 40.6902 11.3691 40.4814 11.2762 40.2815C11.1772 40.0638 10.9193 39.8728 10.5025 39.7088Z" fill="black"/>
<path d="M11.9061 36.5421C12.7788 36.9389 13.0682 37.4594 12.7713 38.1052C12.6873 38.2887 12.5929 38.4215 12.4894 38.502C12.3859 38.5825 12.2465 38.6437 12.0696 38.6825L13.6245 39.388L13.5 39.6579L9.70947 37.9367L9.83392 37.6667L10.1638 37.8159C10.0768 37.6488 10.0318 37.5027 10.0244 37.3759C10.0184 37.2491 10.0558 37.0955 10.1383 36.9165C10.4367 36.2677 11.026 36.1439 11.9061 36.5421ZM11.7817 36.8121C11.4053 36.6421 11.1054 36.575 10.8805 36.6107C10.6556 36.648 10.4862 36.7912 10.3707 37.0418C10.2553 37.2924 10.2583 37.5146 10.3767 37.707C10.4967 37.8994 10.7426 38.0814 11.1144 38.2499C11.4878 38.4185 11.7862 38.4856 12.0111 38.4483C12.236 38.411 12.4054 38.2678 12.5209 38.0173C12.6363 37.7667 12.6333 37.5444 12.5149 37.352C12.3949 37.1611 12.152 36.9806 11.7817 36.8121Z" fill="black"/>
<path d="M12.1221 33.5652L11.6843 34.4139L13.9694 35.5817L13.833 35.8457L11.5479 34.6779L11.083 35.5787L10.8596 35.4639L11.8987 33.4489L12.1221 33.5652Z" fill="black"/>
<path d="M15.7909 32.3167L15.641 32.5733L13.5928 31.3965L14.8298 33.9693L14.6799 34.2259L12.2373 32.8224L12.3872 32.5658L14.434 33.7426L13.1969 31.1697L13.3469 30.9132L15.7909 32.3167Z" fill="black"/>
<path d="M16.8784 29.1965C17.0778 29.3248 17.1947 29.4874 17.2307 29.6843C17.2652 29.8796 17.2127 30.087 17.0703 30.3062L16.3566 31.3995L13.9905 29.8722L14.6877 28.8028C14.8197 28.6014 14.9816 28.4731 15.175 28.4194C15.3684 28.3658 15.5559 28.3986 15.7388 28.5164C16.0072 28.6894 16.0972 28.937 16.0072 29.2592C16.1362 29.1533 16.2786 29.0936 16.4315 29.0787C16.586 29.0653 16.7344 29.1041 16.8784 29.1965ZM15.8138 29.0966C15.7958 28.9668 15.7208 28.8609 15.5904 28.7759C15.4599 28.6909 15.331 28.6685 15.2035 28.7058C15.0761 28.7446 14.9621 28.8401 14.8631 28.9922L14.3623 29.7588L15.187 30.2913L15.6878 29.5247C15.7898 29.3681 15.8318 29.2264 15.8138 29.0966ZM16.9398 29.7782C16.9158 29.638 16.8349 29.5232 16.6969 29.4337C16.559 29.3457 16.4195 29.3173 16.2801 29.3516C16.1391 29.386 16.0177 29.4814 15.9157 29.6365L15.3999 30.427L16.3086 31.0132L16.8244 30.2227C16.9263 30.0661 16.9638 29.9184 16.9398 29.7782Z" fill="black"/>
<path d="M19.31 27.1278L19.1346 27.3679L18.0565 26.5864L17.1509 27.8243L18.2305 28.6059L18.055 28.846L15.7744 27.1949L15.9498 26.9548L16.9485 27.6782L17.8541 26.4402L16.8555 25.7168L17.0309 25.4767L19.31 27.1278Z" fill="black"/>
<path d="M21.2068 24.7652L21.0194 24.9949L20.802 24.8189C20.8109 24.9919 20.802 25.1262 20.7735 25.2231C20.7315 25.3603 20.64 25.5155 20.4976 25.69C20.0672 26.2165 19.6414 26.3104 19.2201 25.9704C19.0236 25.8108 18.9247 25.6199 18.9232 25.3961C18.9217 25.1724 19.0191 24.9427 19.2126 24.7041L19.7883 23.9986L19.5424 23.8002C19.358 23.6511 19.1811 23.5914 19.0116 23.6227C18.8422 23.654 18.6683 23.7793 18.4898 23.9986C18.3669 24.1492 18.2904 24.2924 18.2604 24.4281C18.2409 24.5325 18.2514 24.6578 18.2919 24.8055L18.01 24.8547C17.9725 24.6742 17.965 24.5191 17.9905 24.3894C18.031 24.2119 18.1315 24.0224 18.2934 23.8241C18.7582 23.2543 19.2306 23.1633 19.7089 23.5511L21.2068 24.7652ZM20.2547 24.3789L19.9728 24.1507L19.4195 24.8279C19.1166 25.1978 19.1121 25.502 19.406 25.7392C19.5544 25.8585 19.7014 25.8988 19.8468 25.86C19.9923 25.8197 20.1482 25.6974 20.3161 25.4931C20.5036 25.2649 20.5905 25.0635 20.58 24.889C20.5695 24.716 20.4616 24.546 20.2547 24.3789Z" fill="black"/>
<path d="M23.1711 22.5592L22.9717 22.78L22.12 22.0163L21.5907 22.5995L21.9956 23.8568L21.7527 24.1253L21.3628 22.8352C21.1934 22.9754 21.0105 23.0425 20.814 23.0365C20.6176 23.0305 20.4362 22.953 20.2713 22.8038C20.0853 22.6368 19.9894 22.4459 19.9834 22.2266C19.9759 22.0089 20.0613 21.8015 20.2398 21.6061L21.0779 20.6814L23.1711 22.5592ZM21.9326 21.8478L21.0644 21.0677L20.4647 21.7284C20.3282 21.8791 20.2623 22.0268 20.2668 22.1729C20.2698 22.3206 20.3417 22.4548 20.4797 22.5801C20.6176 22.7054 20.7616 22.7621 20.9085 22.7501C21.0554 22.7382 21.1979 22.6577 21.3328 22.5085L21.9326 21.8478Z" fill="black"/>
<path d="M24.7381 16.3218C25.1519 16.3397 25.5343 16.5351 25.8851 16.9094C26.236 17.2838 26.4069 17.6761 26.3964 18.0863C26.3859 18.4964 26.1985 18.8708 25.8326 19.2094L26.1955 19.5972L25.9646 19.8119L25.6017 19.4242C25.2359 19.7627 24.8475 19.9223 24.4352 19.9044C24.0228 19.8865 23.642 19.6896 23.2911 19.3138C22.9403 18.9394 22.7708 18.5456 22.7828 18.134C22.7948 17.7223 22.9822 17.3494 23.3451 17.0124L23.1022 16.7528L23.3331 16.5381L23.576 16.7976C23.9359 16.4635 24.3242 16.3039 24.7381 16.3218ZM25.4083 19.2198L23.534 17.2182C23.2222 17.5061 23.0722 17.8163 23.0827 18.1489C23.0932 18.4815 23.2401 18.7992 23.525 19.1035C23.8069 19.4048 24.1158 19.5688 24.4517 19.5972C24.786 19.627 25.1054 19.5002 25.4083 19.2198ZM25.6572 17.1287C25.3723 16.8244 25.0634 16.6559 24.7306 16.6231C24.3977 16.5888 24.0753 16.717 23.7649 17.0049L25.6392 19.0065C25.9421 18.7261 26.0905 18.4189 26.086 18.0833C26.0815 17.7477 25.9391 17.43 25.6572 17.1287Z" fill="black"/>
<path d="M28.7836 15.5937L27.2691 16.8317C27.4476 17.0286 27.599 17.1598 27.725 17.2269C28.0518 17.4015 28.3727 17.3597 28.6891 17.1017C28.803 17.0077 28.8915 16.9063 28.9515 16.7959C29.0025 16.699 29.0415 16.5513 29.0699 16.3529L29.3533 16.347C29.3278 16.5841 29.2769 16.7705 29.2034 16.9078C29.1284 17.0495 29.0115 17.1852 28.851 17.3164C28.2273 17.8265 27.605 17.7072 26.9857 16.9585C26.7038 16.6169 26.5584 16.2843 26.5539 15.9636C26.5479 15.6415 26.6799 15.37 26.9528 15.1478C27.2241 14.9255 27.515 14.845 27.8239 14.9061C28.1343 14.9673 28.4252 15.1612 28.6981 15.4908L28.7836 15.5937ZM28.4012 15.5982C28.2707 15.4595 28.1718 15.367 28.1043 15.3208C27.9409 15.2089 27.7714 15.1552 27.5975 15.1627C27.4236 15.1687 27.2646 15.2313 27.1192 15.3506C26.9932 15.4535 26.9063 15.5788 26.8598 15.725C26.8133 15.8712 26.8118 16.0218 26.8553 16.1769C26.8943 16.3112 26.9812 16.4678 27.1162 16.6497L28.4012 15.5982Z" fill="black"/>
<path d="M32.9203 15.3522L32.6804 15.5282L32.1256 14.778L30.2738 16.1338L30.8286 16.884L30.5887 17.06L29.884 16.1084L30.1854 15.8877C30.1284 15.5819 30.0474 15.303 29.9425 15.0494C29.8375 14.7959 29.6456 14.4826 29.3682 14.1068L28.9858 13.5907L30.3383 12.6003L31.8617 14.6586L32.2156 14.3991L32.9203 15.3522ZM31.6218 14.8361L30.2483 12.9792L29.3772 13.6176L29.7236 14.0859C29.95 14.3917 30.1164 14.6661 30.2214 14.9062C30.3263 15.1464 30.4088 15.4044 30.4673 15.6803L31.6218 14.8361Z" fill="black"/>
<path d="M33.982 11.9367L32.3432 13.0076C32.4991 13.2223 32.6356 13.3685 32.754 13.4491C33.0599 13.6579 33.3838 13.6504 33.7271 13.4267C33.8516 13.3461 33.949 13.2537 34.021 13.1507C34.0825 13.0598 34.138 12.9166 34.186 12.7227L34.4678 12.7465C34.4169 12.9792 34.3464 13.1597 34.2579 13.288C34.168 13.4207 34.0375 13.543 33.8651 13.6564C33.1903 14.0979 32.5846 13.9129 32.0493 13.1015C31.8049 12.7316 31.6969 12.3871 31.7254 12.0664C31.7539 11.7457 31.9158 11.4892 32.2082 11.2983C32.5021 11.1059 32.799 11.0567 33.1004 11.1506C33.4018 11.2431 33.6702 11.4683 33.9071 11.8248L33.982 11.9367ZM33.5997 11.9009C33.4857 11.7487 33.3958 11.6458 33.3343 11.5936C33.1843 11.4653 33.0209 11.3937 32.8485 11.3818C32.6745 11.3699 32.5096 11.4146 32.3537 11.5175C32.2172 11.607 32.1183 11.7219 32.0553 11.8621C31.9938 12.0023 31.9758 12.1514 32.0013 12.311C32.0268 12.4482 32.0958 12.6138 32.2112 12.8077L33.5997 11.9009Z" fill="black"/>
<path d="M36.6809 10.2736C37.1652 11.0984 37.0992 11.6891 36.483 12.047C36.3076 12.1484 36.1546 12.2036 36.0227 12.2096C35.8907 12.2171 35.7423 12.1857 35.5743 12.1156L36.4365 13.5833L36.1786 13.7324L34.0764 10.1558L34.3343 10.0066L34.5172 10.3184C34.5427 10.1319 34.5907 9.98574 34.6582 9.87836C34.7257 9.77097 34.8456 9.66805 35.0181 9.56812C35.6388 9.20717 36.1921 9.44283 36.6809 10.2736ZM36.423 10.4243C36.2146 10.0693 36.0077 9.84256 35.8022 9.74263C35.5968 9.64419 35.3749 9.66358 35.1365 9.80229C34.8966 9.941 34.7706 10.1245 34.7572 10.3497C34.7437 10.5764 34.8396 10.8642 35.0465 11.2162C35.2535 11.5682 35.4589 11.7935 35.6643 11.8919C35.8697 11.9903 36.0916 11.971 36.33 11.8322C36.5685 11.6935 36.6959 11.5101 36.7094 11.2849C36.7229 11.0596 36.6284 10.7718 36.423 10.4243Z" fill="black"/>
<path d="M39.9361 10.1513L39.6707 10.287L39.5418 10.0379C39.4818 10.2005 39.4173 10.3198 39.3529 10.3974C39.2599 10.5063 39.1129 10.6122 38.912 10.7151C38.3048 11.0268 37.8774 10.9433 37.6285 10.463C37.5116 10.2393 37.4981 10.0245 37.588 9.81868C37.6765 9.61285 37.8579 9.44133 38.1323 9.29963L38.9435 8.8835L38.7981 8.60459C38.6886 8.39428 38.5507 8.26899 38.3842 8.23171C38.2163 8.19293 38.0064 8.23916 37.753 8.36893C37.579 8.45842 37.4516 8.55835 37.3691 8.67021C37.3092 8.75821 37.2687 8.87753 37.2447 9.02818L36.9673 8.96106C37.0048 8.78059 37.0617 8.63591 37.1367 8.52703C37.2447 8.37937 37.4126 8.24811 37.642 8.13028C38.2973 7.7932 38.7666 7.8976 39.0485 8.4435L39.9361 10.1513ZM39.2194 9.41896L39.053 9.09828L38.2733 9.4995C37.8474 9.71875 37.72 9.99468 37.8939 10.3303C37.9809 10.4988 38.1008 10.5943 38.2493 10.6166C38.3992 10.6375 38.5912 10.5883 38.8281 10.4675C39.092 10.3318 39.2524 10.1826 39.3124 10.0185C39.3723 9.85299 39.3409 9.65313 39.2194 9.41896Z" fill="black"/>
<path d="M43.6202 9.49049L43.3473 9.6128L42.9635 8.76263L40.8868 9.69185L39.7292 7.1324L40.0021 7.0101L41.0562 9.34134L42.4597 8.71341L41.4056 6.38366L41.677 6.26135L42.7311 8.5926L43.1314 8.41362L43.6202 9.49049Z" fill="black"/>
<path d="M45.9788 7.58283L45.6999 7.68873L44.8527 5.49321L44.187 8.26744L43.9081 8.37333L42.8975 5.75422L43.1764 5.64833L44.0235 7.84385L44.6893 5.07111L44.9682 4.96521L45.9788 7.58283Z" fill="black"/>
<path d="M48.8095 6.64465L48.5261 6.73563L48.1723 5.6498L47.421 5.89143L47.1392 7.1816L46.7943 7.29346L47.1062 5.98241C46.8888 6.0197 46.6968 5.98689 46.5289 5.88397C46.3625 5.78106 46.244 5.62445 46.1765 5.41265C46.1001 5.17699 46.1121 4.96221 46.2155 4.76981C46.319 4.5774 46.4974 4.44018 46.7493 4.35964L47.9413 3.97632L48.8095 6.64465ZM48.0943 5.41265L47.7344 4.30445L46.8828 4.57889C46.6893 4.64154 46.5574 4.73699 46.4869 4.86526C46.4164 4.99503 46.4089 5.14716 46.4674 5.32465C46.5259 5.50214 46.6204 5.62147 46.7538 5.6856C46.8873 5.74824 47.0507 5.74974 47.2426 5.68709L48.0943 5.41265Z" fill="black"/>
<path d="M53.8026 4.20749C53.882 4.54756 53.8401 4.83841 53.6751 5.08003C53.5102 5.32166 53.2403 5.48573 52.8684 5.57224L51.33 5.9302L50.3794 1.89414L51.8728 1.54662C52.2222 1.46459 52.5281 1.49591 52.7905 1.6376C53.0529 1.7793 53.2193 2.00601 53.2928 2.31625C53.3617 2.61157 53.3168 2.87855 53.1578 3.11868C53.0948 3.20967 53.0019 3.29617 52.8774 3.38119C53.0529 3.40804 53.1938 3.45129 53.3048 3.50946C53.5597 3.65414 53.7276 3.88532 53.8026 4.20749ZM52.8849 3.03068C53.0094 2.85618 53.0439 2.64587 52.9854 2.39977C52.9269 2.15367 52.8025 1.98065 52.6105 1.88072C52.4186 1.78079 52.1817 1.76289 51.9013 1.82852L50.7498 2.09699L51.1186 3.6616L52.2702 3.39312C52.5551 3.326 52.7605 3.20519 52.8849 3.03068ZM53.3857 4.92939C53.5162 4.74146 53.5507 4.52071 53.4922 4.26865C53.4322 4.01509 53.3033 3.83312 53.1023 3.72275C52.9014 3.61238 52.6615 3.59 52.3796 3.65414L51.1831 3.93305L51.5729 5.58864L52.7695 5.30973C53.0499 5.24261 53.2568 5.11583 53.3857 4.92939Z" fill="black"/>
<path d="M56.8647 3.35594C56.9546 3.87648 56.9052 4.27323 56.7147 4.54469C56.5468 4.78184 56.3069 4.92801 55.995 4.9817C55.6831 5.0354 55.4087 4.97872 55.1688 4.81018C54.8989 4.62075 54.719 4.27025 54.6291 3.75716C54.5391 3.24408 54.5901 2.8533 54.7805 2.58483C54.9484 2.34768 55.1883 2.20151 55.5002 2.14781C55.8571 2.08666 56.154 2.15974 56.3909 2.37005C56.6293 2.58035 56.7867 2.90849 56.8647 3.35594ZM56.5753 3.43649C56.5318 3.18442 56.4793 2.99201 56.4194 2.86076C56.3579 2.7295 56.2739 2.62361 56.1645 2.54456C55.9875 2.4133 55.7806 2.36856 55.5467 2.40883C55.3128 2.4491 55.1344 2.56096 55.0114 2.74293C54.875 2.93981 54.8465 3.26198 54.9244 3.70943C54.9664 3.95404 55.0189 4.14197 55.0789 4.27323C55.1389 4.40448 55.2243 4.51038 55.3323 4.58943C55.5092 4.72069 55.7146 4.76543 55.95 4.72516C56.1839 4.68489 56.3624 4.57302 56.4853 4.39106C56.6218 4.19418 56.6518 3.87499 56.5753 3.43649Z" fill="black"/>
<path d="M60.1409 4.37457L59.844 4.40887L59.5411 1.87179L58.4076 2.00603L58.5305 3.38121C58.604 4.16277 58.3581 4.58636 57.7928 4.65199L57.6069 4.67436L57.5769 4.42528L57.7223 4.40738C57.8003 4.39843 57.8678 4.37904 57.9248 4.3507C57.9817 4.32236 58.0402 4.27165 58.1002 4.19857C58.1602 4.12548 58.2022 4.01213 58.2247 3.86148C58.2471 3.71084 58.2486 3.5244 58.2262 3.30365L58.0867 1.78976L59.8065 1.58691L60.1409 4.37457Z" fill="black"/>
<path d="M63.222 2.80706L61.2652 2.93384C61.2937 3.19635 61.3402 3.39174 61.4032 3.52001C61.5651 3.85113 61.8515 4.00476 62.2593 3.97791C62.4078 3.96896 62.5382 3.93615 62.6522 3.88245C62.7512 3.83323 62.8696 3.73628 63.0091 3.5916L63.243 3.7512C63.0825 3.92869 62.9326 4.05099 62.7916 4.11811C62.6477 4.1897 62.4723 4.23147 62.2668 4.24489C61.4601 4.29709 61.0268 3.8392 60.9623 2.8712C60.9338 2.42971 61.0103 2.07622 61.1947 1.81222C61.3792 1.54822 61.6461 1.40354 61.9969 1.38117C62.3478 1.3588 62.6312 1.46171 62.8471 1.68992C63.063 1.91961 63.186 2.24625 63.213 2.67283L63.222 2.80706ZM62.9086 2.58781C62.8846 2.39839 62.8576 2.26564 62.8291 2.18957C62.7616 2.00313 62.6567 1.86293 62.5112 1.76747C62.3658 1.67202 62.1994 1.63025 62.0134 1.64219C61.85 1.65263 61.7061 1.70334 61.5831 1.79581C61.4601 1.88829 61.3702 2.0091 61.3147 2.15974C61.2682 2.291 61.2472 2.46998 61.2502 2.6952L62.9086 2.58781Z" fill="black"/>
<path d="M66.4386 4.08378L66.1402 4.08677L66.1132 1.73464L64.5193 4.10467L64.2209 4.10765L64.1895 1.3021L64.4878 1.29911L64.5148 3.65124L66.1087 1.28122L66.4071 1.27823L66.4386 4.08378ZM66.2107 0C66.1072 0.486236 65.7998 0.732337 65.2885 0.738303C64.7772 0.744269 64.4638 0.505626 64.3499 0.0208813L64.6243 0.0178983C64.7098 0.328135 64.9317 0.48027 65.29 0.475795C65.6409 0.471321 65.8568 0.314711 65.9348 0.00298304L66.2107 0Z" fill="black"/>
<path d="M69.6863 2.79369C69.6638 3.32169 69.5319 3.69457 69.292 3.91233C69.0881 4.10623 68.8272 4.19572 68.5078 4.1823C68.2304 4.17036 68.0025 4.08386 67.8255 3.92277C67.6471 3.76169 67.5347 3.54691 67.4882 3.27694C67.4567 3.10393 67.4552 2.6863 67.4837 2.02407C67.5032 1.57064 67.5422 1.22014 67.5991 0.974036C67.6561 0.727935 67.7701 0.52658 67.941 0.371461C68.046 0.274513 68.1794 0.199937 68.3399 0.146242C68.5003 0.092547 68.6397 0.0612251 68.7597 0.0507845C68.8796 0.0403438 69.0341 0.0328862 69.223 0.0299032C69.4119 0.0269201 69.5379 0.0224456 69.6009 0.0164795L69.5889 0.30136C69.5574 0.304343 69.4149 0.307326 69.16 0.311801C68.9066 0.316275 68.6967 0.337156 68.5303 0.372953C68.3653 0.408749 68.2304 0.472885 68.1299 0.565359C68.061 0.628003 68.0025 0.701087 67.953 0.784613C67.905 0.868138 67.8675 0.963595 67.8435 1.07098C67.8195 1.17837 67.8001 1.26488 67.7881 1.33051C67.7761 1.39614 67.7641 1.48563 67.7566 1.60047C67.7476 1.71532 67.7431 1.77498 67.7431 1.78393H67.7611C67.8375 1.64373 67.9635 1.53336 68.1389 1.45281C68.3144 1.37227 68.4838 1.33648 68.6472 1.34393C69.0011 1.35885 69.268 1.49159 69.4464 1.73919C69.6264 1.98827 69.7058 2.34027 69.6863 2.79369ZM69.3865 2.8101C69.3969 2.55505 69.3879 2.35668 69.3595 2.21796C69.331 2.07925 69.271 1.96142 69.181 1.86298C69.0401 1.7019 68.8512 1.61539 68.6187 1.60644C68.3923 1.596 68.1989 1.6661 68.0355 1.81525C67.8645 1.97485 67.7686 2.27912 67.7506 2.72956C67.7401 2.97715 67.7506 3.17105 67.7806 3.31125C67.812 3.44996 67.8705 3.56779 67.956 3.66474C68.1044 3.82582 68.2934 3.91233 68.5183 3.92128C68.7522 3.93172 68.9471 3.86162 69.1016 3.71247C69.1945 3.62745 69.2635 3.51708 69.307 3.37986C69.349 3.24413 69.376 3.05471 69.3865 2.8101Z" fill="black"/>
<path d="M72.7781 3.04712C72.7271 3.57214 72.5741 3.94204 72.3192 4.15532C72.0943 4.34027 71.8244 4.41783 71.5095 4.388C71.1947 4.35817 70.9442 4.23139 70.7583 4.00617C70.5469 3.75261 70.4674 3.36631 70.5169 2.84875C70.5664 2.33119 70.7193 1.96726 70.9742 1.75696C71.1992 1.57201 71.469 1.49445 71.7839 1.52428C72.1453 1.55859 72.4122 1.70774 72.5846 1.97174C72.7571 2.23723 72.8215 2.59519 72.7781 3.04712ZM72.4782 3.04862C72.5022 2.79357 72.5037 2.59519 72.4797 2.45201C72.4557 2.30882 72.4017 2.18502 72.3177 2.08062C72.1813 1.9076 71.9953 1.81065 71.7584 1.78828C71.5215 1.76591 71.3191 1.82706 71.1527 1.97025C70.9697 2.12387 70.8558 2.42814 70.8123 2.88007C70.7883 3.12767 70.7883 3.32156 70.8123 3.46475C70.8363 3.60794 70.8903 3.73173 70.9742 3.83614C71.1107 4.00915 71.2981 4.1061 71.535 4.12848C71.7719 4.15085 71.9729 4.0897 72.1408 3.94651C72.3237 3.79139 72.4362 3.49309 72.4782 3.04862Z" fill="black"/>
<path d="M75.6659 4.88914L75.3705 4.84589L75.7514 2.31925L74.6223 2.15071L74.3764 3.50948C74.2399 4.28209 73.8906 4.62663 73.3268 4.54162L73.1409 4.51477L73.1784 4.26718L73.3223 4.28806C73.3988 4.29999 73.4692 4.2985 73.5322 4.28657C73.5952 4.27463 73.6657 4.24033 73.7421 4.18514C73.8201 4.12996 73.8891 4.03301 73.9521 3.89281C74.015 3.7526 74.0645 3.57362 74.102 3.35586L74.3689 1.85986L76.0827 2.11491L75.6659 4.88914Z" fill="black"/>
<path d="M78.6437 5.46943L78.3513 5.40977L78.4083 5.13683C78.2584 5.22482 78.1339 5.27852 78.0349 5.29791C77.894 5.32476 77.7126 5.31581 77.4907 5.26957C76.8219 5.13235 76.5415 4.80123 76.651 4.27174C76.702 4.02415 76.8264 3.84964 77.0258 3.74524C77.2238 3.64083 77.4742 3.61995 77.777 3.6811L78.6707 3.86307L78.7337 3.55581C78.7817 3.32463 78.7517 3.14117 78.6467 3.00693C78.5403 2.8727 78.3483 2.77724 78.0694 2.72056C77.879 2.68178 77.7156 2.68029 77.5806 2.71609C77.4787 2.74741 77.3707 2.81453 77.2582 2.91744L77.0828 2.69222C77.2268 2.57439 77.3617 2.49832 77.4892 2.45955C77.6661 2.41182 77.8805 2.4148 78.1324 2.46551C78.8551 2.61317 79.1535 2.98754 79.0306 3.58714L78.6437 5.46943ZM78.5493 4.45222L78.6227 4.09873L77.7635 3.92273C77.2942 3.82727 77.0198 3.963 76.9449 4.3314C76.9059 4.51784 76.9389 4.6655 77.0408 4.77588C77.1428 4.88625 77.3242 4.96679 77.5851 5.02049C77.876 5.08015 78.0964 5.06374 78.2464 4.97425C78.3933 4.88476 78.4953 4.71025 78.5493 4.45222Z" fill="black"/>
<path d="M83.8542 6.87296L83.5513 6.78347L84.6564 3.07704L83.103 2.61914L82.4972 4.42537C82.2693 5.107 82.0249 5.5634 81.7625 5.7931C81.5001 6.02279 81.1808 6.08245 80.8029 5.97208L80.584 5.90795L80.6635 5.63947L80.8209 5.68571C81.0158 5.74239 81.1823 5.74835 81.3202 5.70212C81.4581 5.65588 81.6066 5.51269 81.7655 5.27256C81.9245 5.03242 82.0849 4.66849 82.2468 4.18226L82.8856 2.26416L85.0403 2.89955L83.8542 6.87296Z" fill="black"/>
<path d="M87.3763 6.69853L85.5336 6.03182C85.4541 6.28389 85.4166 6.48077 85.4226 6.62396C85.4376 6.99236 85.637 7.24592 86.0224 7.38612C86.1618 7.43684 86.2938 7.45921 86.4212 7.45623C86.5307 7.45026 86.6791 7.4085 86.865 7.33243L87.0135 7.57256C86.7946 7.67101 86.6071 7.72321 86.4527 7.72917C86.2923 7.73663 86.1138 7.70531 85.9204 7.63521C85.1617 7.36077 84.9488 6.76714 85.2817 5.85582C85.4331 5.43969 85.6475 5.14735 85.9234 4.97881C86.1993 4.81027 86.5022 4.78491 86.8321 4.90423C87.1619 5.02356 87.3793 5.23088 87.4858 5.52769C87.5908 5.8245 87.5713 6.17352 87.4243 6.57325L87.3763 6.69853ZM87.1769 6.37338C87.2309 6.19142 87.2609 6.05867 87.2654 5.97813C87.2789 5.78125 87.2399 5.60972 87.1454 5.46355C87.051 5.31739 86.916 5.21298 86.7406 5.15033C86.5861 5.09515 86.4347 5.08471 86.2848 5.11901C86.1348 5.15332 86.0044 5.22939 85.8904 5.34572C85.7945 5.44715 85.703 5.60227 85.6145 5.80959L87.1769 6.37338Z" fill="black"/>
<path d="M89.7277 9.12064L89.4533 9.0043L89.9751 7.78274L88.5582 7.18315L88.0363 8.40471L87.762 8.28837L88.8655 5.70654L89.1399 5.82288L88.6571 6.95345L90.0741 7.55156L90.5569 6.42098L90.8313 6.53732L89.7277 9.12064Z" fill="black"/>
<path d="M92.6994 10.5421L92.431 10.4108L93.4746 8.30031L90.9766 9.69936L90.7097 9.5681L91.9542 7.05042L92.2226 7.18167L91.179 9.29217L93.6771 7.89312L93.9455 8.02438L92.6994 10.5421Z" fill="black"/>
<path d="M95.5031 12.0902L95.2452 11.941L95.9124 10.7911L94.5794 10.0259L93.9122 11.1759L93.6543 11.0267L95.0652 8.59705L95.3232 8.7462L94.7054 9.80965L96.0384 10.5748L96.6561 9.51135L96.914 9.6605L95.5031 12.0902Z" fill="black"/>
<path d="M99.3221 11.4176L98.0866 10.6494L96.7251 12.8166L96.4717 12.6585L97.9681 10.2795L99.457 11.2058L99.3221 11.4176Z" fill="black"/>
<path d="M101.041 13.9949C100.495 14.7794 99.9279 14.9703 99.3402 14.5661C99.1737 14.4513 99.0583 14.3365 98.9968 14.2201C98.9353 14.1038 98.9008 13.9561 98.8918 13.7771L97.9202 15.1747L97.6743 15.0061L100.045 11.598L100.291 11.7666L100.084 12.0634C100.264 12.0082 100.418 11.9888 100.544 12.0052C100.67 12.0216 100.816 12.0857 100.979 12.1991C101.571 12.6033 101.591 13.2029 101.041 13.9949ZM100.795 13.8249C101.03 13.4863 101.15 13.2044 101.153 12.9777C101.156 12.751 101.044 12.5601 100.817 12.402C100.589 12.2453 100.369 12.2081 100.157 12.2916C99.9459 12.3751 99.7225 12.5839 99.4901 12.918C99.2577 13.2521 99.1393 13.534 99.1348 13.7607C99.1318 13.9874 99.2427 14.1784 99.4706 14.335C99.6985 14.4916 99.919 14.5289 100.13 14.4453C100.343 14.3648 100.564 14.1575 100.795 13.8249Z" fill="black"/>
<path d="M102.533 16.8796L102.296 16.6976L102.468 16.4769C102.294 16.4903 102.159 16.4843 102.062 16.459C101.924 16.4217 101.765 16.3337 101.585 16.1964C101.045 15.7818 100.94 15.3597 101.272 14.9331C101.426 14.7333 101.616 14.6304 101.841 14.6244C102.066 14.6184 102.3 14.7079 102.545 14.8958L103.267 15.4507L103.461 15.2016C103.606 15.0152 103.662 14.8377 103.626 14.6706C103.59 14.5036 103.459 14.3335 103.234 14.1605C103.08 14.0412 102.934 13.9696 102.798 13.9428C102.693 13.9264 102.567 13.9398 102.419 13.983L102.362 13.7041C102.543 13.6624 102.699 13.6519 102.829 13.6728C103.009 13.7086 103.201 13.804 103.405 13.9607C103.989 14.4096 104.092 14.8764 103.716 15.3612L102.533 16.8796ZM102.897 15.925L103.119 15.6386L102.425 15.1047C102.045 14.8123 101.739 14.8153 101.509 15.1136C101.392 15.2642 101.356 15.4119 101.399 15.5551C101.443 15.6983 101.57 15.8519 101.78 16.013C102.015 16.1935 102.219 16.2755 102.393 16.2606C102.567 16.2457 102.735 16.1338 102.897 15.925Z" fill="black"/>
<path d="M104.632 19.8684L104.405 19.6745L105.017 18.9691L103.275 17.476L102.663 18.1815L102.437 17.9876L103.212 17.0927L103.495 17.3358C103.781 17.212 104.038 17.0718 104.263 16.9137C104.488 16.7556 104.753 16.4991 105.057 16.1471L105.477 15.6624L106.75 16.7527L105.074 18.6886L105.407 18.9735L104.632 19.8684ZM104.848 18.4933L106.36 16.7467L105.54 16.0442L105.158 16.4857C104.908 16.7735 104.677 16.9958 104.465 17.1524C104.254 17.309 104.018 17.4447 103.762 17.564L104.848 18.4933Z" fill="black"/>
<path d="M107.497 20.7545C107.28 20.7679 107.101 20.753 106.965 20.7112C106.827 20.6695 106.684 20.5785 106.539 20.4383C106.254 20.1668 106.121 19.8626 106.139 19.5255C106.157 19.1869 106.32 18.8573 106.63 18.5351C106.941 18.2129 107.265 18.0354 107.603 18.0026C107.942 17.9698 108.254 18.0891 108.539 18.3606C108.683 18.4978 108.779 18.6335 108.827 18.7678C108.875 18.902 108.899 19.0795 108.899 19.2988L108.622 19.2928C108.626 19.1257 108.61 18.9855 108.572 18.8722C108.535 18.7588 108.461 18.6499 108.352 18.5455C108.109 18.3144 107.839 18.2308 107.544 18.292C107.323 18.3352 107.089 18.4859 106.842 18.7439C106.593 19.0019 106.455 19.2376 106.426 19.4524C106.381 19.7522 106.476 20.0147 106.713 20.2414C106.825 20.3488 106.939 20.4174 107.053 20.4472C107.167 20.4771 107.31 20.489 107.481 20.4786L107.497 20.7545Z" fill="black"/>
<path d="M109.389 23.2976L109.131 23.0262L109.494 21.3065L108.557 21.3378L108.013 21.8494L107.807 21.6331L109.857 19.7061L110.062 19.9223L108.863 21.0499L111.063 20.9753L111.323 21.2498L109.791 21.2975L109.389 23.2976Z" fill="black"/>
<path d="M112.303 24.4983C111.898 24.8398 111.53 24.9994 111.198 24.9756C110.905 24.9517 110.658 24.8204 110.454 24.5818C110.248 24.3431 110.159 24.0777 110.182 23.7883C110.209 23.4602 110.421 23.1276 110.82 22.7905C111.217 22.4534 111.581 22.2983 111.911 22.3251C112.202 22.349 112.451 22.4802 112.655 22.7189C112.89 22.9933 112.977 23.2857 112.916 23.5944C112.854 23.9017 112.651 24.2044 112.303 24.4983ZM112.087 24.2909C112.283 24.1254 112.423 23.9822 112.505 23.8644C112.588 23.7465 112.637 23.6198 112.651 23.4855C112.673 23.2678 112.609 23.0679 112.454 22.8874C112.3 22.7069 112.112 22.6115 111.892 22.5981C111.652 22.5817 111.36 22.7204 111.012 23.0142C110.821 23.1753 110.685 23.3155 110.602 23.4333C110.52 23.5511 110.47 23.6779 110.457 23.8122C110.433 24.0299 110.499 24.2298 110.653 24.4103C110.808 24.5907 110.995 24.6862 111.216 24.6996C111.456 24.716 111.745 24.5803 112.087 24.2909Z" fill="black"/>
<path d="M113.136 27.8884L112.955 27.6527L114.837 26.2283L111.974 26.37L111.793 26.1343L114.038 24.4355L114.219 24.6712L112.337 26.0956L115.201 25.9539L115.383 26.1895L113.136 27.8884ZM116.294 25.2692C115.84 25.4766 115.458 25.3781 115.149 24.9739C114.838 24.5697 114.846 24.1775 115.167 23.7971L115.333 24.0149C115.134 24.2684 115.144 24.5369 115.362 24.8203C115.575 25.0977 115.829 25.1753 116.128 25.053L116.294 25.2692Z" fill="black"/>
<path d="M117.839 31.1773C117.393 31.4577 117.068 31.6367 116.861 31.7143C116.654 31.7918 116.435 31.8052 116.203 31.753C115.81 31.665 115.504 31.4488 115.284 31.1057C115.065 30.7612 114.999 30.3943 115.087 30.0035C115.14 29.7678 115.249 29.5724 115.414 29.4188C115.579 29.2637 115.877 29.0504 116.309 28.7789C116.336 28.7625 116.375 28.7372 116.428 28.7044C116.675 28.5492 116.858 28.4374 116.978 28.3718C117.098 28.3061 117.245 28.2509 117.422 28.2092C117.599 28.1674 117.773 28.1644 117.945 28.2032C118.338 28.2912 118.644 28.506 118.864 28.8505C119.083 29.1951 119.149 29.562 119.061 29.9528C119.046 30.0169 119.028 30.0781 119.004 30.1362C118.981 30.1944 118.95 30.2526 118.909 30.3092C118.869 30.3659 118.834 30.4151 118.806 30.4569C118.777 30.4987 118.731 30.5449 118.671 30.5971C118.609 30.6493 118.561 30.6911 118.528 30.7209C118.495 30.7522 118.438 30.7925 118.36 30.8432C118.282 30.8954 118.228 30.9297 118.197 30.9506C118.165 30.97 118.104 31.0088 118.014 31.0654C117.924 31.1221 117.866 31.1594 117.839 31.1773ZM117.62 30.9431L117.753 30.8596C118.129 30.6225 118.383 30.4375 118.516 30.3063C118.65 30.175 118.737 30.0169 118.777 29.8349C118.843 29.5411 118.794 29.2622 118.626 28.9997C118.458 28.7372 118.227 28.5731 117.932 28.5075C117.743 28.4657 117.551 28.4836 117.356 28.5612C117.161 28.6387 116.868 28.7998 116.479 29.0444L116.326 29.1414C115.987 29.3547 115.753 29.5277 115.624 29.6604C115.495 29.7917 115.411 29.9468 115.372 30.1228C115.306 30.4166 115.356 30.6955 115.523 30.9581C115.691 31.2206 115.922 31.3846 116.218 31.4503C116.363 31.4831 116.516 31.4771 116.678 31.4324C116.84 31.3876 116.975 31.3354 117.086 31.2728C117.194 31.2071 117.372 31.0983 117.62 30.9431Z" fill="black"/>
<path d="M118.828 34.2886C118.365 34.5452 117.976 34.6287 117.663 34.5392C117.39 34.4676 117.177 34.2931 117.021 34.0142C116.886 33.7726 116.841 33.5354 116.886 33.2998C116.931 33.0641 117.057 32.8553 117.264 32.6748C117.395 32.5585 117.753 32.3392 118.336 32.0156C118.735 31.7948 119.054 31.6457 119.296 31.5651C119.537 31.4861 119.768 31.4771 119.992 31.5398C120.129 31.5786 120.263 31.6531 120.393 31.7605C120.522 31.8694 120.623 31.9708 120.695 32.0663C120.767 32.1617 120.854 32.29 120.956 32.4481C121.058 32.6062 121.127 32.7121 121.164 32.7628L120.914 32.9015C120.896 32.8762 120.818 32.7569 120.681 32.5436C120.545 32.3303 120.417 32.1632 120.3 32.0409C120.183 31.9186 120.059 31.8396 119.926 31.8023C119.836 31.7769 119.741 31.765 119.645 31.768C119.548 31.771 119.447 31.7889 119.342 31.8246C119.237 31.8604 119.153 31.8903 119.09 31.9141C119.027 31.938 118.945 31.9753 118.843 32.0275C118.741 32.0797 118.686 32.108 118.68 32.111L118.689 32.1259C118.849 32.117 119.009 32.1662 119.17 32.2736C119.33 32.381 119.45 32.5048 119.53 32.648C119.702 32.9567 119.728 33.252 119.609 33.5324C119.486 33.8173 119.227 34.0694 118.828 34.2886ZM118.657 34.044C118.882 33.9202 119.047 33.8084 119.15 33.7114C119.254 33.6145 119.324 33.5026 119.362 33.3758C119.426 33.1715 119.402 32.9672 119.288 32.7643C119.179 32.5674 119.017 32.4392 118.806 32.378C118.579 32.3169 118.269 32.3944 117.873 32.6137C117.654 32.7345 117.494 32.8434 117.39 32.9433C117.287 33.0432 117.216 33.1536 117.179 33.2774C117.117 33.4892 117.143 33.692 117.252 33.8889C117.366 34.0918 117.526 34.2215 117.735 34.2752C117.856 34.3095 117.987 34.3095 118.126 34.2752C118.266 34.2394 118.443 34.1619 118.657 34.044Z" fill="black"/>
<path d="M118.956 37.6952L118.825 37.4282L121.134 36.3081L120.635 35.2879L119.371 35.8562C118.654 36.1828 118.17 36.0903 117.921 35.5817L117.839 35.4147L118.065 35.3043L118.13 35.4356C118.164 35.5057 118.203 35.5623 118.249 35.6071C118.296 35.6518 118.363 35.6906 118.452 35.7219C118.542 35.7532 118.662 35.7562 118.813 35.7279C118.965 35.6996 119.142 35.6399 119.343 35.5459L120.734 34.9165L121.493 36.4647L118.956 37.6952Z" fill="black"/>
<path d="M120.164 40.4664L120.047 40.1935L120.305 40.0846C120.148 40.0115 120.032 39.9414 119.96 39.8698C119.858 39.7699 119.762 39.6162 119.675 39.4089C119.408 38.784 119.525 38.3664 120.025 38.156C120.259 38.0576 120.475 38.0606 120.674 38.1635C120.873 38.2679 121.032 38.4603 121.152 38.7422L121.508 39.579L121.799 39.4567C122.017 39.3642 122.152 39.2374 122.205 39.0733C122.256 38.9108 122.226 38.699 122.115 38.4379C122.038 38.259 121.948 38.1247 121.842 38.0352C121.758 37.9696 121.643 37.9189 121.493 37.8861L121.581 37.6146C121.76 37.6653 121.901 37.7325 122.004 37.816C122.143 37.9338 122.263 38.1113 122.364 38.347C122.652 39.0226 122.511 39.479 121.944 39.7192L120.164 40.4664ZM120.953 39.8116L121.287 39.6714L120.945 38.8675C120.758 38.4275 120.491 38.2813 120.142 38.429C119.966 38.5036 119.861 38.6139 119.828 38.7601C119.795 38.9063 119.831 39.1017 119.935 39.3448C120.05 39.6162 120.188 39.7878 120.347 39.8594C120.506 39.931 120.708 39.9146 120.953 39.8116Z" fill="black"/>
<path d="M121.614 43.1869C121.413 43.1033 121.26 43.0123 121.155 42.9139C121.05 42.8155 120.963 42.6723 120.894 42.4829C120.759 42.1145 120.774 41.7833 120.939 41.4865C121.104 41.1912 121.398 40.966 121.819 40.8124C122.241 40.6587 122.611 40.6423 122.929 40.7617C123.247 40.881 123.473 41.1256 123.61 41.494C123.679 41.6804 123.704 41.8445 123.688 41.9862C123.671 42.1279 123.614 42.2979 123.517 42.4948L123.271 42.368C123.349 42.2204 123.397 42.0861 123.413 41.9683C123.43 41.8505 123.413 41.7207 123.361 41.579C123.245 41.2658 123.041 41.0719 122.748 40.9958C122.532 40.9376 122.254 40.9705 121.917 41.0943C121.58 41.2166 121.352 41.3687 121.23 41.5492C121.056 41.7983 121.025 42.0757 121.137 42.3829C121.191 42.5291 121.262 42.641 121.35 42.717C121.439 42.7946 121.562 42.8662 121.719 42.9333L121.614 43.1869Z" fill="black"/>
<path d="M124.482 45.0201L124.193 44.1102L121.745 44.8814L121.655 44.598L124.103 43.8269L123.796 42.8618L124.036 42.7858L124.722 44.944L124.482 45.0201Z" fill="black"/>
<path d="M122.76 48.4744L122.683 48.188L124.968 47.587L122.268 46.6294L122.191 46.343L124.919 45.6256L124.995 45.912L122.71 46.5131L125.411 47.4706L125.487 47.757L122.76 48.4744Z" fill="black"/>
<path d="M65.9001 121.079C58.0042 121.079 50.3452 119.541 43.1344 116.507C36.1696 113.576 29.9156 109.382 24.5446 104.039C19.1737 98.6968 14.9574 92.4742 12.011 85.5476C8.96118 78.3749 7.41528 70.7562 7.41528 62.9019H7.86511C7.86511 70.695 9.39902 78.2556 12.4263 85.3731C15.3487 92.2475 19.5336 98.4209 24.864 103.723C30.1945 109.026 36.4006 113.187 43.3114 116.095C50.4666 119.105 58.0672 120.633 65.9016 120.633C73.7361 120.633 81.3367 119.107 88.4919 116.095C95.4027 113.188 101.609 109.026 106.939 103.723C112.27 98.4209 116.453 92.2475 119.377 85.3731C122.403 78.2556 123.938 70.695 123.938 62.9019H124.388C124.388 70.7562 122.842 78.3749 119.792 85.5476C116.846 92.4757 112.63 98.6968 107.259 104.039C101.888 109.382 95.6336 113.578 88.6688 116.507C81.4551 119.541 73.7961 121.079 65.9001 121.079Z" fill="#022C49"/>
<path d="M65.9004 123.995C57.6086 123.995 49.5657 122.379 41.9936 119.193C34.6795 116.116 28.112 111.712 22.4712 106.101C16.8304 100.49 12.4026 93.9568 9.3093 86.6812C6.10654 79.149 4.48267 71.1485 4.48267 62.9004H4.93249C4.93249 71.0873 6.54437 79.0297 9.72314 86.5067C12.7939 93.7286 17.1902 100.214 22.7891 105.783C28.3879 111.352 34.9089 115.726 42.1676 118.78C49.6842 121.942 57.6686 123.546 65.8989 123.546C74.1292 123.546 82.1136 121.942 89.6302 118.78C96.8904 115.726 103.41 111.352 109.009 105.783C114.607 100.214 119.004 93.7271 122.075 86.5067C125.253 79.0297 126.865 71.0873 126.865 62.9004H127.315C127.315 71.1485 125.691 79.149 122.488 86.6812C119.395 93.9568 114.967 100.49 109.327 106.101C103.686 111.712 97.1183 116.116 89.8041 119.193C82.235 122.379 74.1922 123.995 65.9004 123.995Z" fill="#022C49"/>
<path d="M65.9004 127C57.2008 127 48.7621 125.306 40.8182 121.963C33.1456 118.734 26.2543 114.113 20.3361 108.226C14.4179 102.339 9.77267 95.4841 6.52643 87.852C3.16623 79.9499 1.46289 71.5557 1.46289 62.9019H1.91272C1.91272 71.4945 3.60406 79.8306 6.94177 87.6775C10.164 95.2574 14.7777 102.065 20.6555 107.91C26.5317 113.755 33.375 118.345 40.9951 121.551C48.8835 124.87 57.2638 126.554 65.9019 126.554C74.5401 126.554 82.9204 124.872 90.8088 121.551C98.4288 118.346 105.272 113.757 111.148 107.91C117.025 102.065 121.638 95.2574 124.862 87.6775C128.198 79.8306 129.891 71.4945 129.891 62.9019H130.341C130.341 71.5557 128.638 79.9499 125.277 87.852C122.031 95.4841 117.386 102.339 111.468 108.226C105.55 114.113 98.6583 118.734 90.9857 121.963C83.0388 125.306 74.6001 127 65.9004 127Z" fill="#022C49"/>
<defs>
<linearGradient id="paint0_linear" x1="119.27" y1="39.4649" x2="-48.0963" y2="37.2911" gradientUnits="userSpaceOnUse">
<stop stop-color="#EDEEEF"/>
<stop offset="1" stop-color="#E3E4E5"/>
</linearGradient>
<linearGradient id="paint1_linear" x1="59.9274" y1="120.702" x2="144.582" y2="-22.9331" gradientUnits="userSpaceOnUse">
<stop stop-color="#022C49"/>
<stop offset="1" stop-color="#00579E"/>
</linearGradient>
<linearGradient id="paint2_linear" x1="18.6687" y1="28.9626" x2="100.698" y2="174.098" gradientUnits="userSpaceOnUse">
<stop stop-color="#D60000"/>
<stop offset="1" stop-color="#8C0404"/>
</linearGradient>
</defs>
</svg>
